# xmcd
#
# Track frame offsets: 
#        150
#        14652
#        28407
#        49638
#        66329
#        85860
#        97133
#        116447
#        131080
#        146798
#        163426
#        182762
#        200017
#        216723
#        229654
#
# Disc length: 3276 seconds
#
# Revision: 0
# Processed by: cddbd v1.5.1PL0 Copyright (c) Steve Scherf et al.
# Submitted via: ExactAudioCopy v0.95a5
#
DISCID=f10cca0f
DTITLE=Limestone - Let It Rain
DYEAR=1900
DGENRE=Country
TTITLE0=2000 Man
TTITLE1=Dark Skies
TTITLE2=Dance Dance Dance
TTITLE3=Blue Mountain
TTITLE4=Getting Paid
TTITLE5=Big Sciota
TTITLE6=Reckless Love
TTITLE7=Contest Comin'
TTITLE8=Let It Rain
TTITLE9=Paradise
TTITLE10=Don't Look Back
TTITLE11=Canyon Moonrise
TTITLE12=Heartbreak
TTITLE13=Once More
TTITLE14=Vivien Leigh
EXTD=
EXTT0=
EXTT1=
EXTT2=
EXTT3=
EXTT4=
EXTT5=
EXTT6=
EXTT7=
EXTT8=
EXTT9=
EXTT10=
EXTT11=
EXTT12=
EXTT13=
EXTT14=
PLAYORDER=
